<?xml version="1.0" encoding="UTF-8"?>
<svg version="1.1" xmlns="http://www.w3.org/2000/svg" width="256" height="256">
<path d="M0 0 C2.27805508 1.04801814 4.41930821 2.22295885 6.58740234 3.48242188 C7.40015625 3.93206299 8.21291016 4.3817041 9.05029297 4.8449707 C11.63848752 6.28513587 14.20750494 7.75554875 16.77490234 9.23242188 C18.4242953 10.16923035 20.07403291 11.10543228 21.72412109 12.04101562 C25.17961262 14.00682134 28.62704635 15.98611276 32.07177734 17.97070312 C38.35472693 21.57909424 44.68754733 25.09570825 51.02490234 28.60742188 C52.15331543 29.23342285 53.28172852 29.85942383 54.44433594 30.50439453 C59.05204375 33.06029903 63.66024885 35.61529813 68.27001953 38.16748047 C71.64870783 40.0396108 75.02456135 41.91676483 78.39990234 43.79492188 C79.41213867 44.35421387 80.424375 44.91350586 81.46728516 45.48974609 C85.98684254 48.00895557 90.47294313 50.57917436 94.86083984 53.32226562 C95.9250415 53.98343384 95.9250415 53.98343384 97.01074219 54.65795898 C99.75546946 57.10755021 100.63830857 59.97768738 101.03217125 63.59566402 C101.03552294 64.41656301 101.03887463 65.23746199 101.04232788 66.08323669 C101.05512283 67.50673935 101.05512283 67.50673935 101.06817627 68.95899963 C101.06681671 70.50284584 101.06681671 70.50284584 101.06542969 72.07788086 C101.07214691 73.17112671 101.07886414 74.26437256 101.08578491 75.39074707 C101.10477754 79.00338285 101.10868958 82.61583303 101.11083984 86.22851562 C101.11726614 88.74048438 101.12399437 91.25245238 101.13101196 93.76441956 C101.14298736 99.02923791 101.14677812 104.29400919 101.14550781 109.55883789 C101.14430608 115.63640143 101.16541831 121.71361003 101.19699514 127.79108375 C101.2263361 133.64784194 101.23348297 139.50445997 101.23228836 145.36128426 C101.23464906 147.84878045 101.24349886 150.33627925 101.25895309 152.82372856 C101.27854207 156.30197532 101.27280238 159.77930696 101.26074219 163.25756836 C101.2719812 164.28477493 101.28322021 165.31198151 101.2947998 166.37031555 C101.24243212 172.31200508 100.71273662 175.69424475 96.77490234 180.23242188 C94.8215332 181.77709961 94.8215332 181.77709961 92.73974609 182.91601562 C91.9447168 183.36058105 91.1496875 183.80514648 90.33056641 184.26318359 C89.46657227 184.72740723 88.60257813 185.19163086 87.71240234 185.66992188 C86.33713379 186.43199951 86.33713379 186.43199951 84.93408203 187.20947266 C82.939525 188.31316302 80.94148622 189.41057927 78.94042969 190.50244141 C75.70564094 192.27027366 72.48308773 194.05872872 69.26318359 195.85351562 C64.71565357 198.38807386 60.16490622 200.91665767 55.61083984 203.43945312 C50.1490426 206.46717175 44.69453433 209.50755246 39.24682617 212.56054688 C37.1935282 213.71045848 35.13869133 214.8576268 33.08227539 216.00195312 C27.68375549 219.01148518 22.32585867 222.07501339 17.00537109 225.22070312 C15.8892041 225.87095459 14.77303711 226.52120605 13.62304688 227.19116211 C11.49516997 228.43218647 9.37687091 229.6898425 7.27050781 230.96704102 C1.02651349 234.58031428 -3.97877436 236.62045869 -11.22509766 235.23242188 C-14.00770796 234.31811141 -16.39953249 233.03760904 -18.91259766 231.54492188 C-19.62480469 231.1455542 -20.33701172 230.74618652 -21.07080078 230.3347168 C-22.6319423 229.45582606 -24.18759647 228.56713337 -25.73828125 227.66992188 C-28.33324722 226.16990621 -30.94290896 224.69860311 -33.55712891 223.23242188 C-37.42637819 221.05919859 -41.28910661 218.87500761 -45.14697266 216.68164062 C-51.24372092 213.21757911 -57.35672339 209.78311309 -63.47509766 206.35742188 C-64.49595459 205.78483643 -65.51681152 205.21225098 -66.56860352 204.62231445 C-71.5926117 201.80825991 -76.62355808 199.00798594 -81.67318726 196.24020386 C-84.12023164 194.8988016 -86.5650186 193.55330863 -89.0098877 192.20794678 C-90.73508294 191.26123952 -92.46392455 190.32118654 -94.19287109 189.38134766 C-110.232269 180.55506281 -110.232269 180.55506281 -114.22509766 174.23242188 C-115.64949215 169.27945763 -115.38029645 164.15315434 -115.38623047 159.04541016 C-115.39367783 157.51036331 -115.39367783 157.51036331 -115.40127563 155.94430542 C-115.41586353 152.56377487 -115.42269307 149.18329121 -115.42822266 145.80273438 C-115.43397614 143.45010375 -115.43973385 141.09747313 -115.44549561 138.74484253 C-115.45599548 133.81377952 -115.46184503 128.88273277 -115.46533203 123.95166016 C-115.4708197 117.63778984 -115.49485806 111.32413486 -115.52330399 105.01033211 C-115.54193866 100.15126926 -115.54713638 95.29225825 -115.54866791 90.43316269 C-115.55169222 88.10558772 -115.55971326 85.77801363 -115.57285309 83.45047379 C-115.58993322 80.19289037 -115.58802848 76.93583285 -115.58154297 73.67822266 C-115.59075775 72.72006653 -115.59997253 71.7619104 -115.60946655 70.77471924 C-115.57090805 64.58297703 -114.99498083 59.28777567 -110.65454102 54.5 C-104.89027943 50.48980345 -98.83519139 47.07950723 -92.65911865 43.74337769 C-90.07940952 42.34987372 -87.50730417 40.94257828 -84.93450928 39.53636169 C-83.61381797 38.81474318 -82.29273113 38.09384809 -80.97125244 37.37367249 C-74.82053614 34.02035718 -68.70669251 30.60288228 -62.60009766 27.16992188 C-53.69407869 22.17146272 -44.77729522 17.19292148 -35.85009766 12.23242188 C-34.75101074 11.62132568 -33.65192383 11.01022949 -32.51953125 10.38061523 C-30.42392243 9.21679761 -28.32489343 8.05911294 -26.22216797 6.90820312 C-24.24015569 5.79998121 -22.27997026 4.65169253 -20.34521484 3.46289062 C-13.50871557 -0.63277432 -7.80586306 -2.69274012 0 0 Z " fill="#01589A" transform="translate(135.22509765625,10.767578125)"/>
<path d="M0 0 C8.06592733 5.9811511 16.27573572 13.64067875 21.37890625 22.3125 C21.37890625 23.3025 21.37890625 24.2925 21.37890625 25.3125 C20.58718018 25.75118408 19.7954541 26.18986816 18.97973633 26.6418457 C16.02541205 28.27933596 13.07152304 29.91760607 10.11791992 31.55639648 C8.84270134 32.26373798 7.56731311 32.97077375 6.29174805 33.67749023 C4.45185723 34.69693774 2.61259163 35.71750544 0.7734375 36.73828125 C-0.88401489 37.65734253 -0.88401489 37.65734253 -2.57495117 38.5949707 C-4.54148749 39.70377755 -6.48184754 40.86099871 -8.38574219 42.07421875 C-10.62109375 43.3125 -10.62109375 43.3125 -12.78125 42.69921875 C-14.64821437 41.29205877 -15.72724945 40.03253265 -17.05859375 38.125 C-22.09734686 31.96221735 -30.72097987 27.32102518 -38.62109375 26.3125 C-51.7217687 25.30806709 -61.57384737 26.79882257 -71.99609375 35.4375 C-80.29354045 43.42763386 -83.70703613 52.03519483 -83.93359375 63.375 C-83.94637091 74.96246857 -80.53418748 83.85741355 -72.62109375 92.3125 C-65.06579345 99.663603 -55.63813884 102.54482293 -45.37792969 102.48876953 C-35.21591069 102.33021667 -25.98389208 99.29830021 -18.3984375 92.24609375 C-15.76526319 89.31013143 -13.87713888 87.0806354 -12.62109375 83.3125 C-13.31041992 83.05275391 -13.99974609 82.79300781 -14.70996094 82.52539062 C-19.95396838 80.34053412 -24.90204965 77.54235598 -29.90625 74.86279297 C-31.87574329 73.81001462 -33.84983058 72.76621941 -35.82421875 71.72265625 C-37.07450937 71.05523164 -38.32451955 70.38728134 -39.57421875 69.71875 C-40.71020508 69.11353516 -41.84619141 68.50832031 -43.01660156 67.88476562 C-45.62109375 66.3125 -45.62109375 66.3125 -46.62109375 64.3125 C-20.55109375 64.3125 5.51890625 64.3125 32.37890625 64.3125 C32.37890625 79.50082301 32.37890625 79.50082301 30.37890625 85.6875 C30.04560303 86.75230591 30.04560303 86.75230591 29.70556641 87.83862305 C25.28171179 101.23977457 18.41082947 111.49803176 8.37890625 121.3125 C7.6725 122.05113281 6.96609375 122.78976563 6.23828125 123.55078125 C-0.33718673 130.0133118 -8.29503218 133.62613674 -16.62109375 137.3125 C-17.74902344 137.84488281 -18.87695312 138.37726563 -20.0390625 138.92578125 C-28.45544796 142.36400546 -36.28852221 142.76352113 -45.30859375 142.8125 C-46.43692627 142.81894531 -47.56525879 142.82539063 -48.7277832 142.83203125 C-68.30940239 142.53453824 -86.22152137 134.6080279 -100.625 121.40234375 C-116.79838357 104.46934921 -125.08045699 84.38810882 -124.8359375 60.94140625 C-123.58029948 39.73253853 -114.53272804 20.4680476 -99.01953125 5.86328125 C-70.07103602 -18.70539842 -31.72112487 -20.42254239 0 0 Z " fill="#FDFDFE" transform="translate(173.62109375,63.6875)"/>
<path d="M0 0 C2.27805508 1.04801814 4.41930821 2.22295885 6.58740234 3.48242188 C7.40015625 3.93206299 8.21291016 4.3817041 9.05029297 4.8449707 C11.63848752 6.28513587 14.20750494 7.75554875 16.77490234 9.23242188 C18.4242953 10.16923035 20.07403291 11.10543228 21.72412109 12.04101562 C25.17961262 14.00682134 28.62704635 15.98611276 32.07177734 17.97070312 C38.35472484 21.57909303 44.687484 25.09582578 51.02490234 28.60742188 C52.15114014 29.23197266 53.27737793 29.85652344 54.43774414 30.5 C56.72699527 31.7694686 59.01630213 33.03883669 61.30566406 34.30810547 C67.06994862 37.50543769 72.83075021 40.70886097 78.58740234 43.91992188 C79.62477539 44.49597168 80.66214844 45.07202148 81.73095703 45.66552734 C86.54578947 48.35456885 91.25110245 51.07574657 95.77490234 54.23242188 C95.60083008 56.02758789 95.60083008 56.02758789 94.77490234 58.23242188 C92.52514648 59.89233398 92.52514648 59.89233398 89.56005859 61.50976562 C88.48046875 62.10595703 87.40087891 62.70214844 86.28857422 63.31640625 C84.58024414 64.23389648 84.58024414 64.23389648 82.83740234 65.16992188 C81.73332031 65.77771484 80.62923828 66.38550781 79.49169922 67.01171875 C72.99299505 70.57007596 66.43018134 73.97670339 59.77490234 77.23242188 C59.35104248 76.57781982 58.92718262 75.92321777 58.49047852 75.2487793 C46.45582548 56.90742201 29.12472141 45.98047388 8.00610352 40.85424805 C2.81471537 39.85519511 -2.26357398 39.74267938 -7.53759766 39.79492188 C-8.62919189 39.80322021 -9.72078613 39.81151855 -10.84545898 39.82006836 C-28.85501979 40.19518411 -44.5413509 46.49957074 -58.22509766 58.23242188 C-58.82580078 58.69003906 -59.42650391 59.14765625 -60.04541016 59.61914062 C-73.88085558 70.44553177 -82.4056934 89.71495565 -84.84228516 106.73242188 C-86.70175037 123.73324669 -83.30329565 139.81040183 -76.22509766 155.23242188 C-76.78269775 155.54880615 -77.34029785 155.86519043 -77.91479492 156.19116211 C-89.43648041 162.73491137 -100.9044194 169.34611068 -112.22509766 176.23242188 C-116.56608427 171.89143526 -115.37953011 164.81279095 -115.38623047 159.04541016 C-115.39367783 157.51036331 -115.39367783 157.51036331 -115.40127563 155.94430542 C-115.41586353 152.56377487 -115.42269307 149.18329121 -115.42822266 145.80273438 C-115.43397614 143.45010375 -115.43973385 141.09747313 -115.44549561 138.74484253 C-115.45599548 133.81377952 -115.46184503 128.88273277 -115.46533203 123.95166016 C-115.4708197 117.63778984 -115.49485806 111.32413486 -115.52330399 105.01033211 C-115.54193866 100.15126926 -115.54713638 95.29225825 -115.54866791 90.43316269 C-115.55169222 88.10558772 -115.55971326 85.77801363 -115.57285309 83.45047379 C-115.58993322 80.19289037 -115.58802848 76.93583285 -115.58154297 73.67822266 C-115.59075775 72.72006653 -115.59997253 71.7619104 -115.60946655 70.77471924 C-115.57090805 64.58297703 -114.99498083 59.28777567 -110.65454102 54.5 C-104.89027943 50.48980345 -98.83519139 47.07950723 -92.65911865 43.74337769 C-90.07940952 42.34987372 -87.50730417 40.94257828 -84.93450928 39.53636169 C-83.61381797 38.81474318 -82.29273113 38.09384809 -80.97125244 37.37367249 C-74.82053614 34.02035718 -68.70669251 30.60288228 -62.60009766 27.16992188 C-53.69407869 22.17146272 -44.77729522 17.19292148 -35.85009766 12.23242188 C-34.75101074 11.62132568 -33.65192383 11.01022949 -32.51953125 10.38061523 C-30.42392243 9.21679761 -28.32489343 8.05911294 -26.22216797 6.90820312 C-24.24015569 5.79998121 -22.27997026 4.65169253 -20.34521484 3.46289062 C-13.50871557 -0.63277432 -7.80586306 -2.69274012 0 0 Z " fill="#6499D1" transform="translate(135.22509765625,10.767578125)"/>
<path d="M0 0 C1.151762 1.64155769 2.22134461 3.34112397 3.25 5.0625 C13.56665763 21.62846769 30.04190024 33.17875911 49 38 C66.11038705 41.19739556 84.18891305 40.5236236 100 33 C100.64243652 32.69497559 101.28487305 32.38995117 101.94677734 32.07568359 C114.20924488 26.0432648 126.68132462 16.36519939 133.53515625 4.296875 C135 2 135 2 138 1 C140.2382987 2.01218573 142.27366672 3.07070362 144.390625 4.296875 C145.01346375 4.64631165 145.63630249 4.99574829 146.27801514 5.35577393 C148.27420284 6.47770518 150.26231627 7.61308145 152.25 8.75 C154.2245929 9.8703364 156.20078869 10.98768991 158.17913818 12.10137939 C159.4093584 12.79487833 160.63726628 13.49250187 161.86236572 14.19500732 C165.81743947 16.43699323 169.80312491 18.27501886 174 20 C174.33 18.68 174.66 17.36 175 16 C176 19 176 19 174.62890625 21.84765625 C171.61971341 26.00625579 167.37813471 28.05154913 162.9375 30.4375 C162.0206543 30.94555176 161.10380859 31.45360352 160.15917969 31.97705078 C158.16462265 33.08074114 156.16658388 34.17815739 154.16552734 35.27001953 C150.9307386 37.03785179 147.70818539 38.82630684 144.48828125 40.62109375 C139.94075123 43.15565199 135.39000387 45.68423579 130.8359375 48.20703125 C125.37414026 51.23474987 119.91963198 54.27513059 114.47192383 57.328125 C112.41862586 58.47803661 110.36378899 59.62520493 108.30737305 60.76953125 C102.90885315 63.7790633 97.55095632 66.84259152 92.23046875 69.98828125 C91.11430176 70.63853271 89.99813477 71.28878418 88.84814453 71.95874023 C86.72026763 73.19976459 84.60196857 74.45742063 82.49560547 75.73461914 C76.25161114 79.3478924 71.2463233 81.38803681 64 80 C61.2173897 79.08568953 58.82556516 77.80518717 56.3125 76.3125 C55.60029297 75.91313232 54.88808594 75.51376465 54.15429688 75.10229492 C52.59315536 74.22340419 51.03750119 73.3347115 49.48681641 72.4375 C46.89185044 70.93748433 44.2821887 69.46618124 41.66796875 68 C37.79871946 65.82677672 33.93599105 63.64258574 30.078125 61.44921875 C23.98137673 57.98515723 17.86837427 54.55069122 11.75 51.125 C10.72914307 50.55241455 9.70828613 49.9798291 8.65649414 49.38989258 C3.63248596 46.57583803 -1.39846043 43.77556406 -6.4480896 41.00778198 C-8.89513398 39.66637972 -11.33992094 38.32088675 -13.78479004 36.9755249 C-15.50998529 36.02881764 -17.23882689 35.08876466 -18.96777344 34.14892578 C-32.82591007 26.52296238 -32.82591007 26.52296238 -36 23 C-36 21.68 -36 20.36 -36 19 C-35.21874756 18.56655273 -34.43749512 18.13310547 -33.63256836 17.68652344 C-30.70447634 16.06171134 -27.77660492 14.43650308 -24.84887695 12.81103516 C-23.58724495 12.11068355 -22.32552793 11.41048507 -21.0637207 10.71044922 C-19.23886521 9.69800466 -17.4143499 8.68494895 -15.58984375 7.671875 C-14.4385498 7.03314453 -13.28725586 6.39441406 -12.10107422 5.73632812 C-9.63483889 4.3554538 -7.19014777 2.94818807 -4.75390625 1.515625 C-2 0 -2 0 0 0 Z " fill="#014482" transform="translate(60,166)"/>
<path d="M0 0 C0.81855469 0.4021875 1.63710937 0.804375 2.48046875 1.21875 C8.96099557 4.74823511 13.42939808 9.25482999 18 15 C14.78048112 17.55242014 11.39747012 19.54468286 7.80859375 21.5390625 C7.22207535 21.86538666 6.63555695 22.19171082 6.03126526 22.52792358 C4.79744387 23.21342211 3.5628036 23.89744861 2.32739258 24.58007812 C0.43793321 25.62476048 -1.44817061 26.67531642 -3.33398438 27.7265625 C-4.5362627 28.39358191 -5.73873024 29.0602604 -6.94140625 29.7265625 C-8.57638062 30.63269287 -8.57638062 30.63269287 -10.24438477 31.55712891 C-13 33 -13 33 -16 34 C-16 34.99 -16 35.98 -16 37 C-15.17798096 37.43868408 -14.35596191 37.87736816 -13.5090332 38.3293457 C-10.44273161 39.96651047 -7.37704766 41.60482048 -4.31176758 43.24389648 C-2.98811804 43.95138385 -1.66422806 44.65842157 -0.34008789 45.36499023 C1.56949115 46.38405479 3.47818312 47.40476419 5.38671875 48.42578125 C6.53358154 49.03848877 7.68044434 49.65119629 8.86206055 50.2824707 C11.61915241 51.79154573 14.31930397 53.35996729 17 55 C16.01572162 60.28463749 12.93983778 63.49647483 9 67 C-2.19260313 74.25781222 -11.75498762 75.97652739 -25 75 C-34.88516252 72.68419887 -43.18539356 66.20274837 -49 58 C-55.05604897 47.91986586 -56.56267421 36.92956689 -54.53515625 25.34375 C-51.35296363 14.64857007 -43.77369125 6.06224279 -34.31640625 0.390625 C-23.86089318 -4.65979923 -10.54278474 -5.24161049 0 0 Z " fill="#669AD2" transform="translate(144,92)"/>
<path d="M0 0 C2.05463274 1.00692279 4.08673134 2.06074391 6.09765625 3.15234375 C7.22880859 3.76400391 8.35996094 4.37566406 9.52539062 5.00585938 C10.70443194 5.64973068 11.88346836 6.29361097 13.0625 6.9375 C14.24521804 7.57788906 15.42815901 8.21786659 16.61132812 8.85742188 C21.46239321 11.48911776 26.28481131 14.13019102 31 17 C30.01572162 22.28463749 26.93983778 25.49647483 23 29 C11.80739687 36.25781222 2.24501238 37.97652739 -11 37 C-20.4671394 34.78212932 -29.81140081 28.31253089 -35 20 C-35.36258093 18.33945071 -35.69904033 16.67281564 -36 15 C-35.37544922 14.66266846 -34.75089844 14.32533691 -34.10742188 13.9777832 C-31.23682885 12.42535757 -28.36840837 10.86895823 -25.5 9.3125 C-24.51773438 8.78205078 -23.53546875 8.25160156 -22.5234375 7.70507812 C-21.07324219 6.91713867 -21.07324219 6.91713867 -19.59375 6.11328125 C-18.63855469 5.59588379 -17.68335937 5.07848633 -16.69921875 4.54541016 C-13.62416719 2.78482076 -10.75703745 0.81276005 -7.93164062 -1.32348633 C-4.85698389 -2.40031568 -2.93750069 -1.23068836 0 0 Z " fill="#034683" transform="translate(130,130)"/>
</svg>
